<svg xmlns="http://www.w3.org/2000/svg" viewBox="0 0 75.08 51.48"><defs><style>.cls-1,.cls-2{fill:none;stroke:#f6b018;stroke-miterlimit:10;}.cls-1{stroke-width:1.41px;}.cls-2{stroke-width:1.64px;}.cls-3{fill:#f6b018;}.cls-4{fill:#20a0b5;}</style></defs><g id="Warstwa_2" data-name="Warstwa 2"><g id="Warstwa_2-2" data-name="Warstwa 2"><text/></g><g id="Warstwa_3" data-name="Warstwa 3"><path class="cls-1" d="M6.26,19.49c-8.44-.28-3.11-8.37-2.1-9.69,2.4-3.12,6.11-6.66,17.55-8.2s36.9-2,47,6.22C76.29,14,73.94,20,70.47,20.17c-3.3.15-61.07-.58-61.07-.58Z"/><path class="cls-1" d="M21.71,1.6a13.41,13.41,0,0,0-1.13,4.54c-.21,2.7.76,3.21.76,3.21s.78.23,1.76-2.18,2.76-6,2.76-6"/><path class="cls-1" d="M36.14,1.1a30.66,30.66,0,0,0-.69,4.62c-.21,2.7.76,3.21.76,3.21S37,9.16,38,6.75s2.76-6,2.76-6"/><path class="cls-1" d="M51.71,2.06a9.29,9.29,0,0,0-1.83,4.49c-.18,2.4.59,2.85.59,2.85s.62.2,1.4-1.94a22.42,22.42,0,0,1,3.34-5.11"/><path class="cls-2" d="M5.71,39c-8.6,0-3.45,4.84-2.46,5.63,2.33,1.87,6,4,17.58,5.14s37.49,1.87,48-2.72c7.94-3.46,5.75-7,2.22-7.19-3.34-.15-62.16-.85-62.16-.85Z"/><path class="cls-3" d="M4.94,35.38a3,3,0,0,1-1.26-2.45,4.22,4.22,0,0,1,.61-2.1A5.89,5.89,0,0,1,6,29,6.58,6.58,0,0,1,8.68,27.9a3.09,3.09,0,0,1-1.24-1A2.27,2.27,0,0,1,7,25.57a3.2,3.2,0,0,1,.77-2A5.58,5.58,0,0,1,9.93,22a7.28,7.28,0,0,1,3-.61,5.37,5.37,0,0,1,2.78.64,2,2,0,0,1,1.08,1.78,1.93,1.93,0,0,1-.6,1.44,1.91,1.91,0,0,1-1.4.58,1.75,1.75,0,0,1-1.27-.52,1.45,1.45,0,0,0,.84-.64,1.91,1.91,0,0,0,.35-1.05.91.91,0,0,0-.44-.83,2,2,0,0,0-1-.26,2.61,2.61,0,0,0-1.42.4,2.84,2.84,0,0,0-1,1,2.6,2.6,0,0,0-.35,1.31,2.3,2.3,0,0,0,.67,1.64,3.65,3.65,0,0,0,2.05,1A6.14,6.14,0,0,0,9,30.61a3.7,3.7,0,0,0-.62,1.92A1.75,1.75,0,0,0,9,33.94a2.85,2.85,0,0,0,1.93.55A8.17,8.17,0,0,0,13.77,34a4.6,4.6,0,0,0,2.17-1.44l.62.19a7.19,7.19,0,0,1-3.24,2.66,11.15,11.15,0,0,1-4.67,1A6,6,0,0,1,4.94,35.38Z"/><path class="cls-3" d="M16.56,35.36a2.75,2.75,0,0,1-1-2.37,6.74,6.74,0,0,1,.79-3,7.23,7.23,0,0,1,2.38-2.68,6.45,6.45,0,0,1,3.77-1.1,3.66,3.66,0,0,1,1.64.28.81.81,0,0,1,.54.71v.14l.3-1h3.89l-2,6.61a1.79,1.79,0,0,0-.1.62c0,.55.36.83,1.1.83a1.9,1.9,0,0,0,1.31-.5,3.6,3.6,0,0,0,.88-1.32h1.13a5.83,5.83,0,0,1-2.47,2.84,6.43,6.43,0,0,1-2.95.75A3.22,3.22,0,0,1,24,35.66a1.86,1.86,0,0,1-.82-1.33,6.78,6.78,0,0,1-1.74,1.29,4.92,4.92,0,0,1-2.28.5A4.19,4.19,0,0,1,16.56,35.36Zm5.66-1.58a2.29,2.29,0,0,0,.9-1.25l1.3-4.39a.68.68,0,0,0-.27-.5,1.24,1.24,0,0,0-.84-.24,2.62,2.62,0,0,0-1.94.9,7.2,7.2,0,0,0-1.84,4.42c0,.65.13,1.06.39,1.24a1.65,1.65,0,0,0,1,.28A2.38,2.38,0,0,0,22.22,33.78Z"/><path class="cls-3" d="M30.59,35.52a2.05,2.05,0,0,1-.66-1.6,3.34,3.34,0,0,1,.16-1l1.73-5.83h-.89l.21-.78H32l.81-2.68,4-.39c-.16.49-.25.79-.27.88-.13.36-.34,1.09-.65,2.19h1.62l-.21.78H35.71L34,32.9a2.42,2.42,0,0,0-.14.67c0,.47.32.7.95.7a3.07,3.07,0,0,0,.7-.05,3.17,3.17,0,0,1-1.27,1.51,3.34,3.34,0,0,1-1.59.39A3,3,0,0,1,30.59,35.52Z"/><path class="cls-4" d="M57.4,35.49a1.93,1.93,0,0,1-.77-1.57,3.69,3.69,0,0,1,.13-.92c.09-.34.19-.67.29-1s.16-.53.2-.62c.14-.45.28-.9.4-1.34A4,4,0,0,0,57.84,29a.86.86,0,0,0-1-1,1.78,1.78,0,0,0-1.24.5,3.44,3.44,0,0,0-.86,1.29L52.93,36H49l2-6.7a1.31,1.31,0,0,0,.08-.48c0-.57-.27-.86-.81-.86a1.91,1.91,0,0,0-1.31.5,3.27,3.27,0,0,0-.87,1.31L46.26,36H42.37l2.86-9.71h3.89l-.29,1a5.06,5.06,0,0,1,3.29-1.11c1.58,0,2.51.56,2.78,1.67a4.83,4.83,0,0,1,3.75-1.65,3.82,3.82,0,0,1,2.19.55,1.85,1.85,0,0,1,.81,1.65,4.64,4.64,0,0,1-.19,1.25c-.13.46-.3,1-.54,1.68-.14.4-.27.79-.39,1.18a3.2,3.2,0,0,0-.18.9.76.76,0,0,0,.25.6,1.27,1.27,0,0,0,.83.22,1.92,1.92,0,0,0,1.3-.42,4.79,4.79,0,0,0,1-1.29h1.14a6.09,6.09,0,0,1-2.31,2.86,5.5,5.5,0,0,1-2.72.73A3.78,3.78,0,0,1,57.4,35.49Z"/><path class="cls-4" d="M64.43,35.37A2.62,2.62,0,0,1,63.32,33a7.33,7.33,0,0,1,.73-3,6.92,6.92,0,0,1,2.38-2.79,7,7,0,0,1,4.18-1.17q3,0,3,1.86a2.83,2.83,0,0,1-.86,2,6.16,6.16,0,0,1-2.3,1.47,9.58,9.58,0,0,1-3,.63c0,.28-.05.48-.05.58,0,1.08.56,1.61,1.67,1.61A4.87,4.87,0,0,0,70.61,34a6.88,6.88,0,0,0,1.57-.74c-.49,1.92-2,2.88-4.67,2.88A5.46,5.46,0,0,1,64.43,35.37Zm5.06-4.71A4.22,4.22,0,0,0,71,29.47a2.5,2.5,0,0,0,.55-1.53c0-.53-.22-.79-.67-.79A2.51,2.51,0,0,0,69,28.38a8.69,8.69,0,0,0-1.39,2.77A4.42,4.42,0,0,0,69.49,30.66Z"/></g></g></svg>